HIERARCHY
ROOT Hips
{
	OFFSET 0.000000 0.000000 0.000000
	CHANNELS 6 Xposition Yposition Zposition Zrotation Yrotation Xrotation 
	JOINT LHipJoint
	{
		OFFSET 0.000000 0.000000 0.000000
		CHANNELS 3 Zrotation Yrotation Xrotation
		JOINT LeftUpLeg
		{
			OFFSET 1.363060 -1.794630 0.839290
			CHANNELS 3 Zrotation Yrotation Xrotation
			JOINT LeftLeg
			{
				OFFSET 2.448110 -6.726130 0.000000
				CHANNELS 3 Zrotation Yrotation Xrotation
				JOINT LeftFoot
				{
					OFFSET 2.562200 -7.039590 0.000000
					CHANNELS 3 Zrotation Yrotation Xrotation
					JOINT LeftToeBase
					{
						OFFSET 0.157640 -0.433110 2.322550
						CHANNELS 3 Zrotation Yrotation Xrotation
						End Site
						{
							OFFSET 0.000000 0.000000 0.000000
						}
					}
				}
			}
		}
	}
	JOINT RHipJoint
	{
		OFFSET 0.000000 0.000000 0.000000
		CHANNELS 3 Zrotation Yrotation Xrotation
		JOINT RightUpLeg
		{
			OFFSET -1.305520 -1.794630 0.839290
			CHANNELS 3 Zrotation Yrotation Xrotation
			JOINT RightLeg
			{
				OFFSET -2.542530 -6.985550 0.000000
				CHANNELS 3 Zrotation Yrotation Xrotation
				JOINT RightFoot
				{
					OFFSET -2.568260 -7.056230 0.000000
					CHANNELS 3 Zrotation Yrotation Xrotation
					JOINT RightToeBase
					{
						OFFSET -0.164730 -0.452590 2.363150
						CHANNELS 3 Zrotation Yrotation Xrotation
						End Site
						{
							OFFSET 0.000000 0.000000 0.000000
						}
					}
				}
			}
		}
	}
	JOINT LowerBack
	{
		OFFSET 0.000000 0.000000 0.000000
		CHANNELS 3 Zrotation Yrotation Xrotation
		JOINT Spine
		{
			OFFSET 0.028270 2.035590 -0.193380
			CHANNELS 3 Zrotation Yrotation Xrotation
			JOINT Spine1
			{
				OFFSET 0.056720 2.048850 -0.042750
				CHANNELS 3 Zrotation Yrotation Xrotation
				JOINT Neck
				{
					OFFSET 0.000000 0.000000 0.000000
					CHANNELS 3 Zrotation Yrotation Xrotation
					JOINT Neck1
					{
						OFFSET -0.054170 1.746240 0.172020
						CHANNELS 3 Zrotation Yrotation Xrotation
						JOINT Head
						{
							OFFSET 0.104070 1.761360 -0.123970
							CHANNELS 3 Zrotation Yrotation Xrotation
							End Site
							{
								OFFSET 0.000000 0.000000 0.000000
							}
						}
					}
				}
				JOINT LeftShoulder
				{
					OFFSET 0.000000 0.000000 0.000000
					CHANNELS 3 Zrotation Yrotation Xrotation
					JOINT LeftArm
					{
						OFFSET 3.362410 1.200890 -0.311210
						CHANNELS 3 Zrotation Yrotation Xrotation
						JOINT LeftForeArm
						{
							OFFSET 4.983000 -0.000000 -0.000000
							CHANNELS 3 Zrotation Yrotation Xrotation
							JOINT LeftHand
							{
								OFFSET 3.483560 -0.000000 -0.000000
								CHANNELS 3 Zrotation Yrotation Xrotation
								JOINT LeftFingerBase
								{
									OFFSET 0.000000 0.000000 0.000000
									CHANNELS 3 Zrotation Yrotation Xrotation
									JOINT LeftHandIndex1
									{
										OFFSET 0.715260 -0.000000 -0.000000
										CHANNELS 3 Zrotation Yrotation Xrotation
										End Site
										{
											OFFSET 0.000000 0.000000 0.000000
										}
									}
								}
								JOINT LThumb
								{
									OFFSET 0.000000 0.000000 0.000000
									CHANNELS 3 Zrotation Yrotation Xrotation
									End Site
									{
										OFFSET 0.000000 0.000000 0.000000
									}
								}
							}
						}
					}
				}
				JOINT RightShoulder
				{
					OFFSET 0.000000 0.000000 0.000000
					CHANNELS 3 Zrotation Yrotation Xrotation
					JOINT RightArm
					{
						OFFSET -3.136600 1.374050 -0.404650
						CHANNELS 3 Zrotation Yrotation Xrotation
						JOINT RightForeArm
						{
							OFFSET -5.241900 -0.000000 -0.000000
							CHANNELS 3 Zrotation Yrotation Xrotation
							JOINT RightHand
							{
								OFFSET -3.444170 -0.000000 -0.000000
								CHANNELS 3 Zrotation Yrotation Xrotation
								JOINT RightFingerBase
								{
									OFFSET 0.000000 0.000000 0.000000
									CHANNELS 3 Zrotation Yrotation Xrotation
									JOINT RightHandIndex1
									{
										OFFSET -0.622530 -0.000000 -0.000000
										CHANNELS 3 Zrotation Yrotation Xrotation
										End Site
										{
											OFFSET 0.000000 0.000000 0.000000
										}
									}
								}
								JOINT RThumb
								{
									OFFSET 0.000000 0.000000 0.000000
									CHANNELS 3 Zrotation Yrotation Xrotation
									End Site
									{
										OFFSET 0.000000 0.000000 0.000000
									}
								}
							}
						}
					}
				}
			}
		}
	}
}
MOTION
Frames: 6
Frame Time: 0.008333
0.377820 20.367063 -10.336025 -1.432150 0.207549 6.696531 -1.323962 -0.900067 -0.419773 -12.851197 -1.597829 -25.634794 0.638104 8.800405 23.083223 0.313559 11.483454 25.803163 0.037278 1.243345 3.418592 -0.859690 0.546693 -0.602952 16.802035 4.198235 -28.012023 -2.258781 -11.114578 30.477857 0.006349 -10.163400 20.133175 -0.558617 -4.787413 13.303150 0.056350 0.114019 9.066707 1.432690 0.481405 -0.935036 2.180584 -0.208920 4.846760 -3.874544 -1.205700 -3.500252 3.201664 -1.419558 31.657313 0.583397 -0.136570 10.618593 10.214338 3.537103 -0.078580 -95.559652 -36.851089 47.874552 27.733093 -41.225337 -11.594008 0.306278 -0.469256 -31.939635 29.593007 -13.323498 -7.103523 -7.125000 0.000000 0.000000 1.579159 15.477763 -1.100907 -8.890558 -2.613503 -0.081186 91.924098 34.199817 35.346037 -15.983590 29.179362 -4.906432 0.686386 0.605730 23.422135 -23.096175 -18.112708 8.035326 7.125000 0.000000 0.000000 4.742008 -50.451531 -0.638336
0.378091 20.245643 -10.169585 -1.409771 0.268316 6.400497 -1.396626 -0.899532 -0.368353 -12.968259 -1.214957 -25.384256 0.417731 8.393705 21.955005 0.398751 10.962161 25.790966 0.014510 0.753546 2.071051 -0.793477 0.550031 -0.599044 16.690481 4.228911 -27.624368 -2.006843 -10.737721 29.319200 -0.061481 -9.750328 20.213966 -0.543990 -4.725268 13.126686 0.055034 0.118819 8.660628 1.423743 0.476522 -0.961075 2.150366 -0.210935 4.953221 -3.877967 -1.227059 -3.588408 3.254521 -1.465873 32.139904 0.615705 -0.147951 10.832103 10.209952 3.564687 -0.088180 -95.642818 -36.791607 48.507050 27.587485 -41.111388 -11.493722 0.304232 -0.470492 -32.092094 29.261987 -13.002728 -6.838522 -7.125000 0.000000 0.000000 1.384651 15.881753 -0.953394 -8.885863 -2.638710 -0.068716 92.073752 33.692581 35.102208 -15.786104 28.948815 -4.807683 0.687780 0.608315 23.619687 -23.058011 -18.117390 8.023790 7.125000 0.000000 0.000000 4.784741 -50.454871 -0.644508
0.377447 20.094799 -10.000600 -1.353139 0.390699 6.068913 -1.463603 -0.891667 -0.312951 -13.123294 -0.906251 -25.074862 0.232775 8.035095 20.974806 0.475441 10.489879 25.770774 0.000281 0.043829 0.120408 -0.736127 0.545152 -0.592482 16.538490 4.256340 -27.195189 -1.816319 -10.433321 28.403335 -0.098165 -9.474392 20.213982 -0.520228 -4.622776 12.835653 0.023587 0.108715 8.238258 1.413611 0.449746 -0.989866 2.129879 -0.224722 5.058041 -3.905928 -1.248130 -3.645065 3.322551 -1.516560 32.576551 0.657776 -0.163331 11.018010 10.202938 3.593265 -0.095725 -95.746305 -36.684841 49.100315 27.399965 -40.960461 -11.367668 0.301296 -0.473383 -31.930825 28.827404 -12.654980 -6.535136 -7.125000 0.000000 0.000000 1.118105 16.327482 -0.758826 -8.883491 -2.669008 -0.054707 92.227045 33.122057 34.817778 -15.625001 28.764196 -4.727832 0.689627 0.611556 23.742695 -23.073506 -18.128208 8.035554 7.125000 0.000000 0.000000 4.774789 -50.474206 -0.645414
0.375752 19.909888 -9.828000 -1.279513 0.636568 5.707225 -1.522703 -0.876673 -0.257556 -13.295915 -0.715082 -24.708162 0.089563 7.744273 20.191470 0.548911 10.083549 25.794862 0.015440 -0.762778 -2.096500 -0.691670 0.530561 -0.581658 16.375464 4.237173 -26.725300 -1.689233 -10.213973 27.771459 -0.101262 -9.252079 20.026825 -0.463939 -4.367685 12.113749 -0.017111 0.059206 7.773176 1.406752 0.369628 -1.019802 2.116088 -0.266166 5.185585 -3.926759 -1.271610 -3.687338 3.378966 -1.569149 32.964670 0.691269 -0.179716 11.176728 10.193893 3.626744 -0.099516 -95.860663 -36.506040 49.629765 27.226547 -40.822755 -11.253964 0.298184 -0.477738 -31.570903 28.336006 -12.343638 -6.242737 -7.125000 0.000000 0.000000 0.805177 16.736396 -0.539525 -8.882265 -2.706074 -0.040387 92.392249 32.506834 34.511641 -15.502365 28.630335 -4.668179 0.690697 0.615566 23.814850 -23.098178 -18.140596 8.051399 7.125000 0.000000 0.000000 4.756672 -50.496815 -0.645650
0.373898 19.695476 -9.650440 -1.222977 0.922270 5.317100 -1.571240 -0.854289 -0.201708 -13.456309 -0.577508 -24.298034 -0.014770 7.523706 19.610581 0.608802 9.733635 25.799280 0.054432 -1.500537 -4.127187 -0.659453 0.507658 -0.566353 16.249384 4.191320 -26.203254 -1.607292 -10.062259 27.366249 -0.088875 -8.984995 19.674290 -0.382926 -3.972984 11.000785 -0.039419 -0.002466 7.255197 1.403290 0.273545 -1.049215 2.099314 -0.315719 5.343150 -3.931651 -1.299863 -3.735388 3.409538 -1.621201 33.337026 0.710518 -0.196177 11.327538 10.184124 3.667218 -0.100253 -95.980236 -36.251513 50.121345 27.092910 -40.721887 -11.168154 0.295474 -0.482632 -31.198505 27.870370 -12.066648 -5.980725 -7.125000 0.000000 0.000000 0.504685 17.101438 -0.334059 -8.879637 -2.749548 -0.025472 92.549840 31.847606 34.204582 -15.411871 28.541771 -4.625762 0.690571 0.620642 23.873914 -23.101227 -18.166379 8.064110 7.125000 0.000000 0.000000 4.764813 -50.530454 -0.650642
0.373147 19.447708 -9.465441 -1.200376 1.137807 4.871332 -1.603257 -0.821415 -0.141867 -13.592414 -0.420689 -23.840902 -0.070386 7.398330 19.307942 0.640615 9.411244 25.673735 0.103042 -2.064885 -5.685239 -0.640717 0.475362 -0.546575 16.190336 4.153184 -25.586675 -1.568465 -9.979346 27.189454 -0.078079 -8.642854 19.246087 -0.305306 -3.550487 9.815549 -0.041496 -0.046455 6.690237 1.404224 0.201053 -1.074568 2.092751 -0.354702 5.533640 -3.962907 -1.325682 -3.788867 3.427503 -1.659900 33.707088 0.732590 -0.211809 11.475269 10.172469 3.714943 -0.096676 -96.098011 -35.903201 50.560473 27.003767 -40.663129 -11.112670 0.293328 -0.487653 -30.912337 27.515064 -11.876211 -5.795241 -7.125000 0.000000 0.000000 0.272622 17.355789 -0.178918 -8.873909 -2.799849 -0.008501 92.678612 31.149544 33.927628 -15.331263 28.471236 -4.589083 0.690883 0.624418 23.961315 -23.126591 -18.132506 8.061261 7.125000 0.000000 0.000000 4.734701 -50.503725 -0.643459
